<?xml version="1.0" encoding="utf-8"?>
<!-- Generator: Adobe Illustrator 18.1.1, SVG Export Plug-In . SVG Version: 6.00 Build 0)  -->
<svg version="1.1" id="Слой_1" xmlns="http://www.w3.org/2000/svg" xmlns:xlink="http://www.w3.org/1999/xlink" x="0px" y="0px"
	 viewBox="0.9 3.9 12.7 10.8" enable-background="new 0.9 3.9 12.7 10.8" xml:space="preserve">
<g>
	<path fill="#C74F48" d="M9.4,13c-0.8,0.7-2,1.2-3.1,1.2c-2.7,0-4.9-2.2-4.9-4.9s2.2-4.9,4.9-4.9c1.3,0,2.2,0.5,3.2,1.2h0.7
		c-1-1.1-2.3-1.7-3.9-1.7c-2.9,0-5.4,2.3-5.4,5.4s2.3,5.4,5.4,5.4c1.6,0,2.9-0.6,3.8-1.6L9.4,13L9.4,13z"/>
	<polygon fill="#C74F48" points="11.6,7.2 11.1,7.5 12.7,9 5.2,9 5.2,9.5 12.7,9.5 11.1,11 11.6,11.3 13.6,9.2 	"/>
</g>
</svg>
