<?xml version="1.0" encoding="utf-8"?>
<!-- Generator: Adobe Illustrator 18.1.1, SVG Export Plug-In . SVG Version: 6.00 Build 0)  -->
<svg version="1.1" id="Слой_1" xmlns="http://www.w3.org/2000/svg" xmlns:xlink="http://www.w3.org/1999/xlink" x="0px" y="0px"
	 viewBox="0.8 2.2 13.3 11.2" enable-background="new 0.8 2.2 13.3 11.2" xml:space="preserve">
<g>
	<path fill="#FFFFFF" d="M9.6,11.7c-0.8,0.7-2,1.2-3.2,1.2c-2.8,0-5-2.2-5-5s2.2-5,5-5c1.3,0,2.3,0.5,3.3,1.2h0.7
		C9.4,3,8,2.4,6.4,2.4c-3,0-5.5,2.4-5.5,5.5s2.4,5.5,5.5,5.5c1.6,0,3-0.6,3.9-1.6H9.6z"/>
	<polygon fill="#FFFFFF" points="11.8,5.8 11.3,6.1 13,7.6 5.3,7.6 5.3,8.1 13,8.1 11.3,9.6 11.8,9.9 13.9,7.8 	"/>
</g>
</svg>
