<?xml version="1.0" encoding="utf-8"?>
<!-- Generator: Adobe Illustrator 18.1.1, SVG Export Plug-In . SVG Version: 6.00 Build 0)  -->
<svg version="1.1" id="Layer_1" xmlns="http://www.w3.org/2000/svg" xmlns:xlink="http://www.w3.org/1999/xlink" x="0px" y="0px"
     viewBox="0 0 417.8 175.3" enable-background="new 0 0 417.8 175.3" xml:space="preserve">
<g>
    <path fill="#F1D568" d="M58.9,143.5c-1.5,4.5-4.6,8.3-8.9,11.8c-4.4,3.6-9,5.5-13.5,5.9c-3.2,0.3-5.9-0.6-8.1-2.6
        c-2.2-2-3.3-4.6-3.7-7.8c-0.2-2.2,0.2-4.3,0.8-6.5c2.7-7.5,6.2-13.6,11.1-18.2c4.1-3.9,10.4-7.9,18.9-11.9c3.2,9.3,4.8,14.9,5,16.5
        C61,134.9,61.2,136.9,58.9,143.5z M104.9,51.4c0.1,1-0.2,1.9-0.8,2.9c-1.5,2.6-4.1,4.2-8.2,4.6c-1.1,0.1-4-0.4-8.6-1.6
        c4.7-5.2,9.3-8.2,14.1-8.7C103.5,48.4,104.7,49.3,104.9,51.4z M36,174.9c10.7-1.1,20.8-4.4,30.2-10.2c11-6.7,18.6-14.9,22.1-25.1
        l2.5-7.5c2.8-8.3,4.1-14.6,3.6-19.1c-0.3-3-1.2-5.6-2.8-8.1c4-0.6,12-3.6,13.8-5.3l3.2-9.4c-1.9,0.8-8.5,2.4-10.9,2.7
        c-3.6,0.4-6.9,0.1-9.8-1c-1.7-1.9-3.4-3.5-4.9-5.4c-2-2.3-3.1-4.6-3.3-6.8c-0.3-2.9,0.9-6.3,3.7-10.5c3,1.4,6.3,1.8,10.3,1.4
        c5.6-0.6,10.8-2.8,15.6-6.4c4.6-3.4,8-8,9.8-13.6c1-3,1.4-5.5,1.1-7.7c-0.8-7.1-7.1-10.2-19.2-8.9c-14.8,1.6-25.8,6.4-33.2,14.4
        c-4.7-2-9.3-3.9-13.9-5.9c-5.4-1.7-10.9-2.3-16.7-1.7c-7.7,0.8-15,3.2-22.2,7.3c-2.4,1.5-3.5,3.5-3.3,5.7c0.3,3.1,1.6,4.4,3.5,4.2
        c0.2,0,2.7-1.3,7.4-3.7c4.7-2.3,8.3-3.6,11.1-3.8c2.6-0.3,6.6,1,11.9,3.9c3.7,2.1,7.4,4.1,11.1,6.2c-3.2,5.1-5.1,9.2-6.1,12.1
        c-2.6,4.6-3.5,9.6-3,15.1c0.3,3.3,1.2,7.1,2.7,11.2c-3.7,0.4-8.2,2.1-13.8,5C19.4,113,8,125.7,2.2,142.4c-1.9,5.1-2.4,9.7-2,13.8
        c0.8,7.1,4.6,12.5,11.7,15.8C18.4,174.9,26.3,175.9,36,174.9z"/>
    <path fill="#F1D568" d="M170.3,150c-10.5,7.5-20.4,11.6-29.9,12.6c-2.2,0.2-4.3-0.2-6.7-0.9c-4.5-1.8-6.9-4.8-7.3-9.3
        c-0.3-2.5-0.2-5.3,0.9-8.5l13.7-41.7c0.1-0.8,0.3-1.5,0.2-2.1c-0.1-1.4-1-2.2-2.9-2c-3.1,0.3-5.1,2-6.2,5.2L112,165.6l-29.4,3.1
        l44.7-138l29.5-3.1l-19.9,60.9c5-3.4,9.7-5.3,14.2-5.8c9.5-1,14.7,3.4,15.8,13.3c0.5,4.9-0.2,10.3-2,16l-7.7,24
        c-0.5,1.5-0.8,2.5-0.7,3.4c0.2,1.8,1.3,2.5,3.5,2.3c3.9-0.4,8.7-3.2,14.1-8.1c5.4-4.9,8.8-9.5,10.3-13.6l6.2,6.5l0,0.2
        C188,134.6,181.2,142.3,170.3,150z"/>
    <path fill="#C74F48" d="M248.1,141.8c-10.5,7.5-20.3,11.6-29.9,12.6c-8.5,0.9-13.2-2.5-14-10.2c-0.3-2.6,0.1-5.3,1-8.3l10.9-33.2
        c0.2-0.2,0.1-0.6,0.1-1c-0.1-1-0.8-1.8-1.9-2.3c-1.1-0.7-2.4-1-3.4-0.9c-1.6,0.2-3.1,2-4.2,5.6c-5,15.1-14.5,27.6-28.5,37.1
        c-4.2,2.9-7.9,4.7-10.9,5.3l23-70.4l46.1,20c3.2,1.5,5.2,4.2,5.6,8.2c0.1,1,0,1.9-0.3,2.5l-6.8,21.3c-0.5,1.3-0.6,2.3-0.5,3.3
        c0.2,1.8,1.3,2.5,3.3,2.3c4.1-0.4,8.7-3.2,14.1-8.1c5.4-4.9,9-9.6,10.4-13.9l6.3,6.7C265.8,126.4,259,134.1,248.1,141.8z"/>
    <path fill="#C74F48" d="M289.9,103.3l-9.2,1l5.8-17.3c0.9-2.8,2.6-4.2,5.5-4.5c2.2-0.2,3.5,0.4,3.7,2.1c0,0.2,0.1,0.6-0.1,1.2
        L289.9,103.3z M335.3,111.4v-0.2l-6.1-6.6c-1.8,4.7-5.7,9.9-12.2,15.3c-10.8,8.9-22.7,14.1-35.9,15.5l-5.9,0.6
        c-1.6,0.2-2.5-0.8-2.7-2.8c-0.2-1.6,0-3.5,0.8-5.9l3.8-11.3l20.3-2.1c9.9-1,16.2-5.6,18.9-13.7c3.5-11.3,5.2-18.8,4.8-22.9
        c-0.7-6.7-5.3-9.5-14.1-8.6l-20.1,2.1c-7.1,0.8-13.5,4.1-19.2,10.2c-5,5.5-8.8,12-11.3,19.7l-5,15.3c-2.8,8.7-4.1,15.4-3.6,20.5
        c1,9.5,8.8,13.7,23.5,12.1l15.4-1.6c7.9-0.8,17.1-4.9,27.7-12C325.7,127.4,332.7,119.5,335.3,111.4z"/>
    <path fill="#C74F48" d="M349.3,123.3c-1.2,3.8-3.1,5.9-5.7,6.2c-1.4,0.1-2.3-0.6-2.5-2.2c-0.1-1.2,0.1-2.7,0.8-4.6l13.6-42.3
        c0.8-2.5,2.6-4,5.7-4.3c1.4-0.2,2.5,0.2,3.2,0.9L349.3,123.3z M414.4,103.7l0-0.2l-6.1-6.7c-5,7.1-9,11.8-11.8,14.4
        c-5.5,4.5-9.9,7-13.4,7.4c-1.8,0.2-2.7-0.5-2.9-2c0-0.2-0.1-0.6,0.1-0.8L417.8,0l-29.5,3.1l-19.9,61.1c-2.3-0.6-4.8-0.7-7.4-0.4
        c-9.1,0.9-17.3,5.5-24.4,13.7c-6,7-10.9,15.3-14,25.3l-2.2,6.8c-2.8,8.7-3.9,15.4-3.4,20.5c1,9.8,8.7,13.9,23.1,12.4
        c4.5-0.5,9.1-3,14-7.7c0.6,3.8,4.1,5.3,9.9,4.7c9.6-1,19.4-5.1,29.9-12.4C404.9,119.3,411.7,111.6,414.4,103.7z"/>
</g>
<text transform="matrix(0.9675 -0.2584 0.258 0.9661 203.5228 71.3253)"><tspan x="0" y="0" fill="#F9DA60" font-family="'BradleyHandITCTT-Bold'" font-size="22">Chat o</tspan><tspan x="59.6" y="0" fill="#F1D568" font-family="'BradleyHandITCTT-Bold'" font-size="22">f Developer</tspan></text>
</svg>
