<?xml version="1.0" encoding="utf-8"?>
<!-- Generator: Adobe Illustrator 18.1.1, SVG Export Plug-In . SVG Version: 6.00 Build 0)  -->
<svg version="1.1" id="Слой_1" xmlns="http://www.w3.org/2000/svg" xmlns:xlink="http://www.w3.org/1999/xlink" x="0px" y="0px"
	 viewBox="0 0 16 16" enable-background="new 0 0 16 16" xml:space="preserve">
<path opacity="1" fill="#F8333A" d="M11.4,8l4-4C16.5,2.9,16,2,15,1.1c-0.9-0.9-1.9-1.5-3-0.4l-4,4l-4-4C2.9-0.5,2,0,1.1,0.9
	C0.2,1.9-0.4,2.9,0.7,4l4,4l-4,4c-1.1,1.1-0.8,2.1,0.2,3C1.8,16,2.9,16.5,4,15.4l4-4l4,4c1.1,1.1,2,0.4,2.9-0.6
	c0.9-0.9,1.6-1.7,0.4-2.8L11.4,8z"/>
</svg>
