<?xml version="1.0" encoding="utf-8"?>
<!-- Generator: Adobe Illustrator 18.1.1, SVG Export Plug-In . SVG Version: 6.00 Build 0)  -->
<svg version="1.1" id="Слой_1" xmlns="http://www.w3.org/2000/svg" xmlns:xlink="http://www.w3.org/1999/xlink" x="0px" y="0px"
	 viewBox="0 0 20.7 25.4" enable-background="new 0 0 20.7 25.4" xml:space="preserve">
<path fill="#58F849" d="M2.4,1.4c-3.8,3.8-2.8,10.3,1.3,16c3.7,6,9.3,9.4,14.3,7.4c0,0,2-0.6,2.8-3.1c0.4-1.5-3.5-5.3-5.4-4.7
	c-0.3,0.1-2.1,1.7-2.8,2.2c-0.5,0.3-1,0.1-1.2,0c-1.7-1-3.4-3.3-4-4.2c-0.7-1-2.1-3.4-2.3-5.3c0-0.2,0-0.8,0.5-1.1
	c0.7-0.5,2.9-1.5,3.1-1.8C9.9,5.3,7.9,0.2,6.4,0C3.7-0.3,2.4,1.4,2.4,1.4z"/>
</svg>
